<svg id="Layer_1" data-name="Layer 1" xmlns="http://www.w3.org/2000/svg" viewBox="0 0 548.34 548.35"><defs><style>.cls-1{fill:#fff;}.cls-2{fill:#cf202f;}</style></defs><title>meta_logo</title><polygon points="548.34 548.35 0 548.36 0 0 548.34 0 548.34 548.35"/><polygon class="cls-1" points="165.2 253.7 165.2 200.76 147.88 235.2 135.89 235.2 118.42 200.76 118.42 253.7 100.68 253.7 100.68 162.9 118.17 162.9 141.88 211.98 165.48 162.9 182.94 162.9 182.94 253.7 165.2 253.7"/><polygon class="cls-1" points="218.51 253.7 218.51 162.9 278.31 162.9 278.31 178.7 236.22 178.7 236.22 200.01 272.07 200.01 272.07 215.83 236.22 215.83 236.22 237.88 278.31 237.88 278.31 253.7 218.51 253.7"/><polygon class="cls-1" points="347.37 178.7 347.37 253.69 329.64 253.69 329.64 178.7 305.92 178.7 305.92 162.9 371.09 162.9 371.09 178.7 347.37 178.7"/><path class="cls-1" d="M424,189.67l-11.49,33h22.56Zm21.16,64-5.36-16.08H407.56l-5.49,16.08H383.59l33-90.79h13.89l33.16,90.79Z"/><polygon class="cls-1" points="219.61 387.8 219.61 297 237.33 297 237.33 371.97 278.51 371.97 278.51 387.8 219.61 387.8"/><path class="cls-1" d="M337.68,323.77l-11.47,33h22.55Zm21.15,64-5.36-16.09H321.23l-5.48,16.09h-18.5l33-90.8h13.91l33.14,90.8Z"/><path class="cls-1" d="M436.62,349.66H418.14V372h18.48c8,0,11.87-5.09,11.87-11.22s-3.82-11.09-11.87-11.09m-1.17-36.86H418.14v20.91h17.32c7.56,0,11.75-4.21,11.75-10.46s-4.2-10.46-11.75-10.46m3,75h-38V297h36.47c17.72,0,28.06,9.94,28.06,25.52a21,21,0,0,1-11.21,18.71c5.46,2.57,12.47,8.31,12.47,20.41,0,17-11.6,26.16-27.79,26.16"/><polygon class="cls-2" points="147.77 346.3 147.77 383.67 138.07 383.67 138.07 346.3 100.68 346.3 100.68 336.59 138.07 336.59 138.07 299.44 147.77 299.44 147.77 336.59 184.92 336.59 184.92 346.3 147.77 346.3"/></svg>